<svg id="Calque_1" data-name="Calque 1" xmlns="http://www.w3.org/2000/svg" viewBox="0 0 254.43 62.72"><defs><style>.cls-1{fill:#fbba00;}.cls-2{fill:#001d77;}.cls-3{fill:#e11f21;}.cls-4,.cls-5{fill:#0b1213;}.cls-5{fill-rule:evenodd;}</style></defs><path class="cls-1" d="M58.55,93.85C54.68,91,55.1,81,59.71,74.85s10.52-7.88,14.39-5,.55,9.64-4.07,15.81-7.61,11.07-11.48,8.17" transform="translate(-43.01 -42.87)"/><path class="cls-2" d="M87.12,96.07c9-10.44,0-15.83-2.71-9.08-4.63,11.74-18.77,14.8-27.76,13.59-1.22-.17-2.23.73-1.38,1.55,6.95,4,18.81,7.09,31.85-6.06" transform="translate(-43.01 -42.87)"/><path class="cls-3" d="M48.29,95.2C42.55,84.41,37.83,66.65,54.7,49.37c14.78-14.25,23.55-1.27,13.73,3.26a30.2,30.2,0,0,0-15,15.87,47.14,47.14,0,0,0-2.77,27.11c.39,1.92-1.21,1.74-2.35-.41" transform="translate(-43.01 -42.87)"/><path class="cls-4" d="M116.19,84.93a1,1,0,0,0,.31,0h7l-.3-2.8H113.06v18.13h10.11l.33-2.8h-7a1.13,1.13,0,0,0-.37,0,.77.77,0,0,0-.27.16l-.09-.09a.85.85,0,0,0,.15-.28A.87.87,0,0,0,116,97V93a.9.9,0,0,0-.06-.34,1,1,0,0,0-.15-.28l.1-.11a1,1,0,0,0,.26.16,2.05,2.05,0,0,0,.37,0h6.12V89.72H116.5a1.46,1.46,0,0,0-.35,0,.83.83,0,0,0-.29.17l-.1-.11a1.7,1.7,0,0,0,.17-.32.9.9,0,0,0,0-.3V85.5a.93.93,0,0,0-.06-.34,1,1,0,0,0-.15-.29l.09-.11a1,1,0,0,0,.33.17" transform="translate(-43.01 -42.87)"/><path class="cls-4" d="M138.62,93.32a11.35,11.35,0,0,0,.12,1.62c.09.56.23,1.23.43,2L139,97a17.14,17.14,0,0,0-.7-1.75,9.24,9.24,0,0,0-.8-1.39l-8-11.67h-2.67v18.13h2.89V89.14a9.7,9.7,0,0,0-.11-1.42c-.07-.48-.22-1.21-.44-2.19l.13,0c.29.82.52,1.42.7,1.81a10.82,10.82,0,0,0,.79,1.31l8,11.69h2.67V82.18h-2.87V93.32Z" transform="translate(-43.01 -42.87)"/><path class="cls-4" d="M150.93,89.35l-.44-.24a8.55,8.55,0,0,1-2.09-1.36,2.13,2.13,0,0,1,0-2.87,2.65,2.65,0,0,1,1.75-.5,3.88,3.88,0,0,1,1.68.35,4,4,0,0,1,1.38,1.14l2-1.89-.2-.2a6.74,6.74,0,0,0-2.2-1.45,7.16,7.16,0,0,0-2.67-.49,5.44,5.44,0,0,0-3.77,1.24,4.35,4.35,0,0,0-1.38,3.39,5,5,0,0,0,.24,1.6,4,4,0,0,0,.74,1.31,8.24,8.24,0,0,0,1.45,1.26A20.81,20.81,0,0,0,149.77,92l.45.23a7.45,7.45,0,0,1,2.3,1.65,2.66,2.66,0,0,1,.55,1.67,2.44,2.44,0,0,1-.73,1.85,2.88,2.88,0,0,1-2,.67,3.92,3.92,0,0,1-1.95-.49,8,8,0,0,1-2-1.66l-2,2,.2.18a8.74,8.74,0,0,0,2.69,1.93,7.74,7.74,0,0,0,3.09.59,5.8,5.8,0,0,0,4.06-1.37,4.87,4.87,0,0,0,1.49-3.77,5.15,5.15,0,0,0-1-3.33,13.15,13.15,0,0,0-4-2.84" transform="translate(-43.01 -42.87)"/><path class="cls-4" d="M162.18,84.93a1,1,0,0,0,.31,0h7l-.31-2.8H159.06v18.13h10.1l.34-2.8h-7a1.18,1.18,0,0,0-.37,0,1,1,0,0,0-.27.16l-.08-.09a1.08,1.08,0,0,0,.15-.28A1.11,1.11,0,0,0,162,97V93a1.16,1.16,0,0,0-.05-.34,1.28,1.28,0,0,0-.15-.28l.1-.11a.93.93,0,0,0,.25.16,1.52,1.52,0,0,0,.37,0h6.13V89.72h-6.13a1.46,1.46,0,0,0-.35,0,.92.92,0,0,0-.29.17l-.1-.11a1,1,0,0,0,.17-.32.9.9,0,0,0,.05-.3V85.5a1.21,1.21,0,0,0-.05-.34,1.34,1.34,0,0,0-.15-.29l.08-.11a1,1,0,0,0,.33.17" transform="translate(-43.01 -42.87)"/><polygon class="cls-5" points="132.97 39.28 129.99 39.28 129.99 57.44 132.97 57.44 132.97 39.28 132.97 39.28"/><path class="cls-4" d="M189.68,92.42h3.88a1,1,0,0,0,.33,0,1,1,0,0,0,.29-.17l.1.1a1.34,1.34,0,0,0-.16.32,1,1,0,0,0,0,.31V95.6a4.21,4.21,0,0,1-2,1.7A7.19,7.19,0,0,1,189,98a6.44,6.44,0,0,1-4.8-2,6.8,6.8,0,0,1-1.92-4.94,6.31,6.31,0,0,1,1.89-4.7,6.44,6.44,0,0,1,4.75-1.86,7.13,7.13,0,0,1,3.14.68,6.5,6.5,0,0,1,2.39,2l2.14-1.81a9.32,9.32,0,0,0-3.35-2.7,10,10,0,0,0-4.32-.91,9.47,9.47,0,0,0-6.84,2.64,8.88,8.88,0,0,0-2.76,6.72A9.13,9.13,0,0,0,182.09,98a9.54,9.54,0,0,0,6.93,2.71,9.31,9.31,0,0,0,4.84-1.31,6.67,6.67,0,0,0,2.92-2.88v-6.7h-6.39l-.71,2.6Z" transform="translate(-43.01 -42.87)"/><path class="cls-4" d="M212.16,93.32a10.1,10.1,0,0,0,.13,1.62c.09.56.23,1.23.42,2l-.13,0a17.32,17.32,0,0,0-.69-1.75,11.35,11.35,0,0,0-.8-1.39l-8-11.67h-2.67v18.13h2.88V89.14a8.49,8.49,0,0,0-.11-1.42c-.07-.48-.21-1.21-.44-2.19l.13,0c.29.82.53,1.42.71,1.81a9.67,9.67,0,0,0,.79,1.31l8,11.69H215V82.18h-2.88V93.32Z" transform="translate(-43.01 -42.87)"/><path class="cls-4" d="M222.36,84.93a1,1,0,0,0,.32,0h7l-.31-2.8H219.24v18.13h10.1l.34-2.8h-7a1.2,1.2,0,0,0-.38,0,1,1,0,0,0-.27.16l-.08-.09a1.51,1.51,0,0,0,.15-.28,1.11,1.11,0,0,0,.05-.36V93a1.16,1.16,0,0,0-.05-.34,1.91,1.91,0,0,0-.15-.28l.1-.11a.93.93,0,0,0,.25.16,1.62,1.62,0,0,0,.38,0h6.12V89.72h-6.12a1.49,1.49,0,0,0-.36,0,.92.92,0,0,0-.29.17l-.1-.11a1,1,0,0,0,.17-.32.9.9,0,0,0,.05-.3V85.5a1.21,1.21,0,0,0-.05-.34,2,2,0,0,0-.15-.29l.08-.11a1,1,0,0,0,.33.17" transform="translate(-43.01 -42.87)"/><path class="cls-4" d="M242.72,91.42a7.05,7.05,0,0,0-.54,1.07,5.29,5.29,0,0,0-.19,1.14h-.13a4.83,4.83,0,0,0-.2-1.15,6.21,6.21,0,0,0-.54-1.07l-5.39-9.24H233v18.13h2.84V89.2a9.12,9.12,0,0,0-.13-1.53c-.08-.53-.24-1.25-.46-2.14l.14,0c.27.81.5,1.47.71,2a11.86,11.86,0,0,0,.7,1.43l5.11,8.77L247,88.88a20.17,20.17,0,0,0,1.43-3.38l0,0,.12,0c-.05.2-.11.47-.19.81a13.77,13.77,0,0,0-.46,2.86v11.11h2.88V82.18h-2.67l-5.42,9.24Z" transform="translate(-43.01 -42.87)"/><path class="cls-4" d="M258.14,84.93a1,1,0,0,0,.31,0h7l-.31-2.8H255v18.13h10.11l.33-2.8h-7a1.13,1.13,0,0,0-.37,0,.77.77,0,0,0-.27.16l-.09-.09a.85.85,0,0,0,.15-.28.87.87,0,0,0,.06-.36V93a.9.9,0,0,0-.06-.34,1,1,0,0,0-.15-.28l.1-.11a.83.83,0,0,0,.26.16,1.46,1.46,0,0,0,.37,0h6.12V89.72h-6.12a1.46,1.46,0,0,0-.35,0,.83.83,0,0,0-.29.17l-.1-.11a1.7,1.7,0,0,0,.17-.32.9.9,0,0,0,.05-.3V85.5a.93.93,0,0,0-.06-.34,1,1,0,0,0-.15-.29l.09-.11a1,1,0,0,0,.33.17" transform="translate(-43.01 -42.87)"/><path class="cls-4" d="M280.57,93.32a11.35,11.35,0,0,0,.12,1.62c.09.56.23,1.23.43,2L281,97a17.14,17.14,0,0,0-.7-1.75,11.27,11.27,0,0,0-.79-1.39l-8-11.67h-2.67v18.13h2.89V89.14a9.7,9.7,0,0,0-.11-1.42c-.07-.48-.22-1.21-.44-2.19l.13,0a16.74,16.74,0,0,0,.71,1.81,9.49,9.49,0,0,0,.78,1.31l8,11.69h2.67V82.18h-2.87V93.32Z" transform="translate(-43.01 -42.87)"/><path class="cls-4" d="M286.23,82.18l-.38,2.72h3.75a1.18,1.18,0,0,0,.37,0,.73.73,0,0,0,.26-.16l.11.1a1.91,1.91,0,0,0-.18.32,1.37,1.37,0,0,0,0,.31v14.88h2.94V85.43a1.09,1.09,0,0,0,0-.34,1.11,1.11,0,0,0-.16-.3l.1-.1a1.6,1.6,0,0,0,.28.17,1,1,0,0,0,.35,0h3.77l-.4-2.72Z" transform="translate(-43.01 -42.87)"/><path class="cls-4" d="M277.92,74.89h-3.68a.68.68,0,0,0-.22,0,.44.44,0,0,0-.15.1l-.06-.06a.49.49,0,0,0,.09-.15.6.6,0,0,0,0-.23V65.71h-1.79V76.56h5.51l.27-1.67Z" transform="translate(-43.01 -42.87)"/><polygon class="cls-5" points="142.08 22.84 143.86 22.84 143.86 33.69 142.08 33.69 142.08 22.84 142.08 22.84"/><path class="cls-4" d="M221.21,72.74q0-.61,0-.9c0-.2-.06-.42-.11-.67l.07,0a5.84,5.84,0,0,0,.27.6q.14.24.45.69l2.77,4.13h1.94l-2.86-4.3a2.13,2.13,0,0,0-.38-.42,2.79,2.79,0,0,0-.52-.37l0,0,.36.08a1.53,1.53,0,0,0,.3,0,2.17,2.17,0,0,0,1.7-.8,2.9,2.9,0,0,0,.69-2,2.86,2.86,0,0,0-.9-2.27,3.91,3.91,0,0,0-2.63-.78H219.5V76.56h1.71V72.74Zm-.06-5.42a.7.7,0,0,0-.1-.16l.06-.06.17.1.21,0h1a1.88,1.88,0,0,1,1.31.38,1.49,1.49,0,0,1,.42,1.17,1.54,1.54,0,0,1-.41,1.19,2,2,0,0,1-1.32.37h-1a.61.61,0,0,0-.22,0,.59.59,0,0,0-.16.1l-.06-.06a.92.92,0,0,0,.13-.19.54.54,0,0,0,0-.19V67.54a2.18,2.18,0,0,0-.06-.22" transform="translate(-43.01 -42.87)"/><path class="cls-4" d="M294.08,75.23a2.47,2.47,0,0,1-1.17-.29,5.28,5.28,0,0,1-1.19-1l-1.17,1.2.11.11a5.37,5.37,0,0,0,1.61,1.15,4.51,4.51,0,0,0,1.84.35,3.45,3.45,0,0,0,2.43-.82,2.87,2.87,0,0,0,.89-2.25,3.11,3.11,0,0,0-.61-2A7.79,7.79,0,0,0,294.44,70l-.26-.15a5.35,5.35,0,0,1-1.25-.81,1.13,1.13,0,0,1-.31-.82,1.09,1.09,0,0,1,.35-.89,1.54,1.54,0,0,1,1-.3,2.13,2.13,0,0,1,1,.21,2.45,2.45,0,0,1,.83.68L297,66.8l-.13-.12a3.81,3.81,0,0,0-1.3-.87,4.46,4.46,0,0,0-1.6-.29,3.21,3.21,0,0,0-2.25.74,2.6,2.6,0,0,0-.83,2,3.11,3.11,0,0,0,.14.95,2.34,2.34,0,0,0,.45.78,4.77,4.77,0,0,0,.86.76,13.35,13.35,0,0,0,1.37.82l.27.14a4.26,4.26,0,0,1,1.37,1,1.59,1.59,0,0,1,.33,1,1.38,1.38,0,0,1-.44,1.09,1.69,1.69,0,0,1-1.2.41" transform="translate(-43.01 -42.87)"/><polygon class="cls-5" points="157.88 28.97 161.63 28.97 161.63 30.57 157.88 30.57 157.88 28.97 157.88 28.97"/><path class="cls-4" d="M287.38,74.89h-4.19a.59.59,0,0,0-.21,0,.5.5,0,0,0-.17.1l-.05-.06a.65.65,0,0,0,.09-.16.61.61,0,0,0,0-.22V72.18a.64.64,0,0,0,0-.2.56.56,0,0,0-.09-.17l.06-.06.16.09.21,0h3.66V70.23h-3.66l-.2,0a.55.55,0,0,0-.18.1l-.06-.06a.5.5,0,0,0,.1-.19.5.5,0,0,0,0-.19v-2.2a.56.56,0,0,0,0-.2.76.76,0,0,0-.09-.18l.05-.06a1.22,1.22,0,0,0,.2.1.52.52,0,0,0,.18,0h4.19l-.18-1.67h-6.06V76.56h6l.2-1.67Z" transform="translate(-43.01 -42.87)"/><path class="cls-4" d="M244.51,71.11a.7.7,0,0,0-.12.18l-2.94,5.27h2l1.72-3.3a4.78,4.78,0,0,0,.29-.68,3.27,3.27,0,0,0,.08-.65h.08a3.81,3.81,0,0,0,.11.7,3.42,3.42,0,0,0,.27.63l1.72,3.3h2l-3-5.27a.55.55,0,0,0-.13-.19.26.26,0,0,0-.13-.06V71a.4.4,0,0,0,.13-.07.55.55,0,0,0,.13-.19l2.85-5h-2l-1.62,3a2.44,2.44,0,0,0-.27.6,3.65,3.65,0,0,0-.11.73h-.08a4.11,4.11,0,0,0-.1-.72,4,4,0,0,0-.27-.61l-1.63-3h-1.95l2.83,5a.56.56,0,0,0,.12.18.36.36,0,0,0,.15.08V71a.35.35,0,0,0-.15.07" transform="translate(-43.01 -42.87)"/><path class="cls-4" d="M180.67,65.72H179v6.66a6.61,6.61,0,0,0,.07,1c0,.33.14.73.25,1.21h-.07a8.57,8.57,0,0,0-.42-1,5.79,5.79,0,0,0-.47-.84l-4.79-7h-1.6V76.56h1.73V69.88a4.88,4.88,0,0,0-.07-.85c0-.29-.13-.72-.26-1.31h.08a10.92,10.92,0,0,0,.42,1.07,6,6,0,0,0,.47.79l4.78,7h1.6V65.72Z" transform="translate(-43.01 -42.87)"/><path class="cls-4" d="M154.94,74.89h-3.68a.68.68,0,0,0-.22,0,.44.44,0,0,0-.15.1l-.06-.06a.35.35,0,0,0,.09-.15.6.6,0,0,0,0-.23V65.71h-1.79V76.56h5.51l.27-1.67Z" transform="translate(-43.01 -42.87)"/><path class="cls-4" d="M235.72,76.42a4.33,4.33,0,0,0,1.44-1A3.68,3.68,0,0,0,238,74a7.42,7.42,0,0,0,.27-2.19v-6.1h-1.78V72a3.64,3.64,0,0,1-.63,2.33,2.28,2.28,0,0,1-1.89.76,2.3,2.3,0,0,1-1.89-.76,3.64,3.64,0,0,1-.63-2.33V65.72h-1.78v6.1a7.42,7.42,0,0,0,.27,2.19,3.68,3.68,0,0,0,.82,1.43,4.33,4.33,0,0,0,1.44,1,4.78,4.78,0,0,0,3.54,0" transform="translate(-43.01 -42.87)"/><path class="cls-4" d="M166.64,75.17a6.1,6.1,0,0,0,0-8.08,5.24,5.24,0,0,0-3.94-1.57,5.09,5.09,0,0,0-3.86,1.59,6.1,6.1,0,0,0,0,8.06,5.6,5.6,0,0,0,7.8,0m-7.52-4a4,4,0,0,1,1-2.85,3.47,3.47,0,0,1,2.64-1.08,3.35,3.35,0,0,1,2.6,1.1,4.52,4.52,0,0,1,0,5.68,3.77,3.77,0,0,1-5.26,0,4.05,4.05,0,0,1-1-2.85" transform="translate(-43.01 -42.87)"/><path class="cls-4" d="M213.67,70.82v-.1a2.13,2.13,0,0,0,1.19-.76,2.32,2.32,0,0,0,.39-1.4,2.58,2.58,0,0,0-.88-2.11,4,4,0,0,0-2.61-.73h-3V76.56H212a3.89,3.89,0,0,0,2.74-.91,3,3,0,0,0,1-2.33,2.55,2.55,0,0,0-.54-1.66,2.4,2.4,0,0,0-1.5-.84m-3.33-3.47a1.2,1.2,0,0,0-.1-.19l.06-.06a.59.59,0,0,0,.16.1l.21,0h1.19a2.07,2.07,0,0,1,1.36.35,1.32,1.32,0,0,1,.42,1.08,1.47,1.47,0,0,1-.41,1.13,1.61,1.61,0,0,1-1.16.39h-1.4a.49.49,0,0,0-.2,0,.62.62,0,0,0-.17.1l-.06-.06,0,0a.59.59,0,0,0,.12-.34V67.53a.8.8,0,0,0,0-.18m3.22,7.21a2,2,0,0,1-1.43.46h-1.44a.55.55,0,0,0-.21,0l-.17.1-.06-.07a.43.43,0,0,0,.1-.16.55.55,0,0,0,0-.21V71.92a.5.5,0,0,0,0-.19.58.58,0,0,0-.1-.19l.06-.07.17.11.21,0h1.38a3.28,3.28,0,0,1,.93.11,1.46,1.46,0,0,1,.61.39,1.66,1.66,0,0,1,.34.54,1.72,1.72,0,0,1,.12.63,1.66,1.66,0,0,1-.51,1.29" transform="translate(-43.01 -42.87)"/><path class="cls-4" d="M145.92,74.89h-3.68a.65.65,0,0,0-.22,0,.44.44,0,0,0-.15.1l-.06-.06a.49.49,0,0,0,.09-.15.6.6,0,0,0,0-.23V65.71h-1.79V76.56h5.51l.27-1.67Z" transform="translate(-43.01 -42.87)"/><path class="cls-4" d="M193.16,67.37a.5.5,0,0,0,.18,0h4.19l-.19-1.67h-6.05V76.56h6l.2-1.67h-4.19a.68.68,0,0,0-.22,0,.59.59,0,0,0-.16.1l-.05-.06a.65.65,0,0,0,.09-.16.61.61,0,0,0,0-.22V72.18a.64.64,0,0,0,0-.2.56.56,0,0,0-.09-.17l.06-.06a.85.85,0,0,0,.15.09l.22,0H197V70.23h-3.66l-.21,0a.66.66,0,0,0-.17.1l-.06-.06a1.2,1.2,0,0,0,.1-.19.5.5,0,0,0,0-.19v-2.2a.56.56,0,0,0,0-.2,1.07,1.07,0,0,0-.09-.19l.05,0a.92.92,0,0,0,.2.1" transform="translate(-43.01 -42.87)"/><path class="cls-4" d="M259.26,74.89h-4.19a.68.68,0,0,0-.22,0,.59.59,0,0,0-.16.1l-.05-.06a.65.65,0,0,0,.09-.16.61.61,0,0,0,0-.22V72.18a.64.64,0,0,0,0-.2.56.56,0,0,0-.09-.17l.06-.06.15.09.22,0h3.66V70.23h-3.66l-.21,0a.66.66,0,0,0-.17.1l-.06-.06a1.44,1.44,0,0,0,.11-.19.92.92,0,0,0,0-.19v-2.2a.56.56,0,0,0,0-.2.76.76,0,0,0-.09-.18l.05-.06.2.1a.5.5,0,0,0,.18,0h4.19l-.19-1.67h-6V76.56h6l.2-1.67Z" transform="translate(-43.01 -42.87)"/><path class="cls-4" d="M130.44,73.3H134l1.15,3.26h1.77L133,65.72h-1.55L127.5,76.56h1.78l1.16-3.26Zm.46-1.7a.37.37,0,0,0,.07-.14l1-3a2.52,2.52,0,0,0,.11-.54c0-.23,0-.5.06-.79h.08c0,.29,0,.56.06.79a2.52,2.52,0,0,0,.11.54l1,3a.37.37,0,0,0,.07.14.65.65,0,0,0,.12.11l0,.07-.16,0-.18,0h-2.06l-.16,0-.17,0-.06-.07a.57.57,0,0,0,.11-.11" transform="translate(-43.01 -42.87)"/><path class="cls-4" d="M265.22,74.89a.65.65,0,0,0-.22,0,.44.44,0,0,0-.15.1l-.06-.06a.85.85,0,0,0,.09-.15.6.6,0,0,0,0-.23V65.71h-1.79V76.56h5.51l.27-1.67Z" transform="translate(-43.01 -42.87)"/><path class="cls-4" d="M122,72.84a5.64,5.64,0,0,0-.17.76c0,.23-.05.59-.06,1.09h-.1c0-.52-.09-.89-.13-1.12s-.11-.46-.19-.73l-1.87-5.49-1.85,5.5a5,5,0,0,0-.2.72c0,.23-.09.6-.14,1.12h-.09c0-.5,0-.87-.07-1.09a3.8,3.8,0,0,0-.17-.76l-2-7.12H113l3.29,10.84h1.61l1.35-4.33a4,4,0,0,0,.1-.58c0-.24,0-.54.07-.89h.07c0,.35,0,.64.07.89a3,3,0,0,0,.11.58L121,76.56h1.59l3.3-10.84H124L122,72.84Z" transform="translate(-43.01 -42.87)"/></svg>