<svg xmlns="http://www.w3.org/2000/svg" width="182.25" height="24.782" viewBox="0 0 182.25 24.782"><g data-name="Group 166"><g data-name="Group 165"><path d="M37.533 9.855a2.839 2.839 0 0 1 1.8.56 2.647 2.647 0 0 1 .954 1.523h-1.223a1.594 1.594 0 0 0-.589-.741 1.664 1.664 0 0 0-.958-.276 1.515 1.515 0 0 0-1.408.889 2.3 2.3 0 0 0-.206 1 2.274 2.274 0 0 0 .206 1 1.515 1.515 0 0 0 1.408.889 1.664 1.664 0 0 0 .959-.272 1.594 1.594 0 0 0 .589-.741h1.222a2.647 2.647 0 0 1-.947 1.523 3.132 3.132 0 0 1-3.272.185 2.55 2.55 0 0 1-.988-1.05 3.278 3.278 0 0 1-.35-1.531 3.3 3.3 0 0 1 .35-1.539 2.558 2.558 0 0 1 .984-1.05 2.842 2.842 0 0 1 1.469-.369zm7-.025a2.925 2.925 0 0 1 1.478.379 2.747 2.747 0 0 1 1.045 1.058 3.072 3.072 0 0 1 .383 1.535 3.1 3.1 0 0 1-.383 1.539 2.739 2.739 0 0 1-1.045 1.062 3.072 3.072 0 0 1-2.955 0 2.739 2.739 0 0 1-1.041-1.062 3.1 3.1 0 0 1-.383-1.539 3.072 3.072 0 0 1 .383-1.535 2.747 2.747 0 0 1 1.045-1.058 2.925 2.925 0 0 1 1.478-.379zm0 1.07a1.72 1.72 0 0 0-.9.23 1.577 1.577 0 0 0-.605.663 2.21 2.21 0 0 0-.218 1.008 2.21 2.21 0 0 0 .218 1.008 1.577 1.577 0 0 0 .605.663 1.862 1.862 0 0 0 1.794 0 1.577 1.577 0 0 0 .605-.663 2.21 2.21 0 0 0 .218-1.008 2.21 2.21 0 0 0-.218-1.008 1.577 1.577 0 0 0-.605-.663 1.72 1.72 0 0 0-.889-.23zm9.364 4.821h-1.16l-2.6-3.951v3.951h-1.162V9.913h1.161l2.6 3.984V9.913h1.161zm5.7-1.589a1.576 1.576 0 0 1-.222.819 1.6 1.6 0 0 1-.659.6 2.283 2.283 0 0 1-1.062.226 2.755 2.755 0 0 1-1.1-.21 1.865 1.865 0 0 1-.778-.605 1.745 1.745 0 0 1-.333-.922h1.235a.943.943 0 0 0 .284.589.891.891 0 0 0 .646.235.752.752 0 0 0 .556-.193.674.674 0 0 0 .193-.5.652.652 0 0 0-.156-.449 1.141 1.141 0 0 0-.4-.284q-.239-.107-.659-.247a6.509 6.509 0 0 1-.889-.358 1.643 1.643 0 0 1-.582-.512 1.474 1.474 0 0 1-.243-.881 1.432 1.432 0 0 1 .539-1.181 2.216 2.216 0 0 1 1.428-.432 2.262 2.262 0 0 1 1.469.444 1.678 1.678 0 0 1 .623 1.189h-1.252a.871.871 0 0 0-.263-.514.818.818 0 0 0-.584-.2.771.771 0 0 0-.519.169.609.609 0 0 0-.2.49.609.609 0 0 0 .152.424 1.162 1.162 0 0 0 .387.276 6.349 6.349 0 0 0 .638.239 8.482 8.482 0 0 1 .91.37 1.6 1.6 0 0 1 .6.519 1.524 1.524 0 0 1 .246.902zm2.675-3.3v1.509h2.058v.889h-2.053v1.564h2.3v.927h-3.461V9.913h3.465v.922zm6.853 4.889l-1.358-2.261h-.51v2.261h-1.161V9.913h2.214a2.187 2.187 0 0 1 1.543.494 1.693 1.693 0 0 1 .531 1.3 1.677 1.677 0 0 1-.366 1.1 1.808 1.808 0 0 1-1.058.593l1.45 2.321zm-1.868-3.059h.955q1 0 1-.881a.867.867 0 0 0-.243-.654 1.05 1.05 0 0 0-.753-.235h-.955zm5.383-2.749l1.556 4.6 1.564-4.6h1.243l-2.058 5.808h-1.49l-2.058-5.808zm9.186 4.643h-2.329l-.41 1.165h-1.226l2.14-5.746h1.325l2.13 5.746H82.23zm-.313-.881l-.855-2.454-.856 2.453zm7.174-3.762v.922h-1.6v4.886h-1.161v-4.886h-1.6v-.922zm4.025-.082a2.925 2.925 0 0 1 1.478.379 2.747 2.747 0 0 1 1.045 1.058 3.072 3.072 0 0 1 .383 1.535 3.1 3.1 0 0 1-.383 1.539 2.739 2.739 0 0 1-1.045 1.062 3.072 3.072 0 0 1-2.955 0 2.739 2.739 0 0 1-1.045-1.062 3.1 3.1 0 0 1-.383-1.539 3.072 3.072 0 0 1 .383-1.535 2.747 2.747 0 0 1 1.045-1.058 2.925 2.925 0 0 1 1.482-.38zm0 1.07a1.719 1.719 0 0 0-.9.23 1.577 1.577 0 0 0-.605.663 2.21 2.21 0 0 0-.218 1.008 2.21 2.21 0 0 0 .218 1.008 1.577 1.577 0 0 0 .605.663 1.862 1.862 0 0 0 1.794 0 1.577 1.577 0 0 0 .605-.663 2.21 2.21 0 0 0 .218-1.008 2.21 2.21 0 0 0-.218-1.008 1.577 1.577 0 0 0-.605-.663 1.719 1.719 0 0 0-.889-.231zm5.6-.988v5.808h-1.161V9.913zm4.744 5.808l-1.359-2.261h-.51v2.261h-1.161V9.913h2.214a2.187 2.187 0 0 1 1.543.494 1.693 1.693 0 0 1 .531 1.3 1.677 1.677 0 0 1-.366 1.1 1.807 1.807 0 0 1-1.058.593l1.45 2.321zm-1.869-3.059h.955q1 0 1-.881a.867.867 0 0 0-.243-.654 1.05 1.05 0 0 0-.753-.235h-.959zm5.729-1.827v1.506h2.058v.889h-2.058v1.564h2.3v.927h-3.465V9.913h3.465v.922zm9.3 4.889l-1.358-2.264h-.51v2.261h-1.161V9.913h2.214a2.187 2.187 0 0 1 1.543.494 1.693 1.693 0 0 1 .531 1.3 1.677 1.677 0 0 1-.366 1.1 1.808 1.808 0 0 1-1.058.593l1.451 2.321zm-1.869-3.062h.955q1 0 1-.881a.867.867 0 0 0-.243-.654 1.05 1.05 0 0 0-.753-.235h-.955zm7.293-2.832a2.925 2.925 0 0 1 1.478.379 2.747 2.747 0 0 1 1.045 1.058 3.072 3.072 0 0 1 .383 1.535 3.1 3.1 0 0 1-.383 1.539 2.739 2.739 0 0 1-1.045 1.062 3.072 3.072 0 0 1-2.955 0 2.739 2.739 0 0 1-1.045-1.062 3.1 3.1 0 0 1-.383-1.539 3.072 3.072 0 0 1 .383-1.535 2.747 2.747 0 0 1 1.045-1.058 2.925 2.925 0 0 1 1.479-.379zm0 1.07a1.719 1.719 0 0 0-.9.23 1.577 1.577 0 0 0-.605.663 2.21 2.21 0 0 0-.218 1.008 2.21 2.21 0 0 0 .218 1.008 1.577 1.577 0 0 0 .605.663 1.862 1.862 0 0 0 1.794 0 1.577 1.577 0 0 0 .605-.663 2.21 2.21 0 0 0 .218-1.008 2.21 2.21 0 0 0-.218-1.008 1.577 1.577 0 0 0-.605-.663 1.72 1.72 0 0 0-.892-.23zm9.12-.988l-1.965 3.779v2.03h-1.168v-2.03l-1.976-3.778h1.336l1.235 2.544 1.235-2.544zm4.827 4.643h-2.33l-.412 1.166h-1.226l2.14-5.746h1.328l2.129 5.746h-1.229zm-.313-.881l-.857-2.453-.856 2.453zm4.387 1.161h1.951v.886h-3.111V9.913h1.161zm10.866-2.025a3.109 3.109 0 0 1-.362 1.523 2.521 2.521 0 0 1-1.049 1.025 3.428 3.428 0 0 1-1.634.366h-2.066V9.913h2.066a3.493 3.493 0 0 1 1.634.358 2.477 2.477 0 0 1 1.049 1.012 3.1 3.1 0 0 1 .361 1.527zm-3.14 1.877a2.013 2.013 0 0 0 1.453-.494 1.827 1.827 0 0 0 .514-1.383 1.838 1.838 0 0 0-.514-1.391 2.013 2.013 0 0 0-1.453-.498h-.807v3.766zm5.836-3.852v1.506h2.058v.889h-2.058v1.564h2.3v.927h-3.466V9.913h3.465v.922zm7.433 4h1.951v.886h-3.12V9.913h1.161zm4.461-4.922v5.808h-1.161V9.913zm2.873.922v1.506h2.058v.889h-2.061v1.564h2.3v.927h-3.465V9.913h3.465v.922zm1.194-2.058v.79l-1.897-.889v-.889zm5.318 1.078a2.862 2.862 0 0 1 1.762.523 2.333 2.333 0 0 1 .9 1.412h-1.227a1.384 1.384 0 0 0-.547-.63 1.632 1.632 0 0 0-.885-.235 1.7 1.7 0 0 0-.889.23 1.555 1.555 0 0 0-.6.659 2.219 2.219 0 0 0-.214 1 1.973 1.973 0 0 0 .49 1.424 1.767 1.767 0 0 0 1.338.51 1.633 1.633 0 0 0 1.074-.37 1.72 1.72 0 0 0 .58-1.029h-1.967v-.828h2.939v1.121a2.739 2.739 0 0 1-.482 1.062 2.59 2.59 0 0 1-.938.778 2.916 2.916 0 0 1-1.329.292 2.987 2.987 0 0 1-1.51-.375 2.58 2.58 0 0 1-1.012-1.045 3.21 3.21 0 0 1-.358-1.535 3.21 3.21 0 0 1 .358-1.535 2.615 2.615 0 0 1 1.008-1.05 2.939 2.939 0 0 1 1.503-.379zm5.449.98v1.506h2.058v.889h-2.058v1.564h2.3v.927h-3.464V9.913h3.465v.922z" fill="#141313"/><g data-name="Group 3"><circle data-name="Ellipse 3" cx="12.391" cy="12.391" r="12.391" fill="#e02533"/><g data-name="Group 2" fill="#fff"><path data-name="Path 5" d="M8.74 21.093a1.861 1.861 0 0 1-.2-.112 2.538 2.538 0 0 1-1.106-1.732 1.993 1.993 0 0 1 .248-1.239 4.18 4.18 0 0 1 1.214-1.331 11.075 11.075 0 0 1 2.189-1.246 26.67 26.67 0 0 1 3.468-1.234c.021-.006.04-.014.079-.028-.268-.053-.519-.1-.766-.152a3.634 3.634 0 0 1-1.225-.463 1.811 1.811 0 0 1-.372-.34.606.606 0 0 1-.117-.533.121.121 0 0 1 .082-.075 10.864 10.864 0 0 1 2.1-.069 5.046 5.046 0 0 1 2.062.534 1.917 1.917 0 0 1 .9.9.933.933 0 0 1-.8 1.38 16.472 16.472 0 0 0-3.1.675 9.513 9.513 0 0 0-1.968.79 5.074 5.074 0 0 0-1.913 1.69 4.5 4.5 0 0 0-.664 1.768c-.053.261-.076.525-.111.817z"/><path data-name="Path 6" d="M11.118 4.832v1.1a.209.209 0 0 1-.124.2c-.069.035-.14.066-.211.1a.931.931 0 0 0-.585.687 2.365 2.365 0 0 0-.041.869 1.242 1.242 0 0 0 1.016 1.078 4.219 4.219 0 0 0 1.409.077 14.525 14.525 0 0 0 3.166-.664c.684-.209 1.376-.391 2.067-.574a1.181 1.181 0 0 1 .72.033.469.469 0 0 1 .315.624.587.587 0 0 1-.206.249 20.061 20.061 0 0 1-2.577 1.325c-1.141.522-2.286 1.035-3.415 1.581-.53.256-1.033.57-1.537.875a2.65 2.65 0 0 0-.438.387 1.051 1.051 0 0 0-.125.195 1.962 1.962 0 0 0 .661.015 10.231 10.231 0 0 1-1.956.985 1.272 1.272 0 0 1 .128-.578 4.889 4.889 0 0 1 .867-1.264 13.633 13.633 0 0 1 2.059-1.877.951.951 0 0 0 .076-.064v-.019c-.3-.074-.6-.136-.9-.223a4.58 4.58 0 0 1-1.929-1.02 1.7 1.7 0 0 1-.592-1.42 2.343 2.343 0 0 1 .491-1.18 6.882 6.882 0 0 1 1.559-1.465.2.2 0 0 1 .039-.021.282.282 0 0 1 .063-.011z"/></g></g></g></g></svg>