<svg data-name="Group 3" xmlns="http://www.w3.org/2000/svg" width="88.436" height="88.436" viewBox="0 0 88.436 88.436"><path data-name="Path 4916" d="M44.218 0A44.218 44.218 0 1 1 0 44.218 44.218 44.218 0 0 1 44.218 0z" fill="#e02533"/><g data-name="Group 2" fill="#fff"><path data-name="Path 5" d="M31.183 75.272a6.662 6.662 0 0 1-.73-.4 9.058 9.058 0 0 1-3.947-6.181 7.111 7.111 0 0 1 .885-4.421 14.919 14.919 0 0 1 4.333-4.75 39.52 39.52 0 0 1 7.812-4.445 95.175 95.175 0 0 1 12.375-4.4c.073-.021.144-.051.281-.1-.956-.188-1.851-.342-2.735-.543a12.966 12.966 0 0 1-4.372-1.653 6.476 6.476 0 0 1-1.329-1.215 2.162 2.162 0 0 1-.418-1.9.43.43 0 0 1 .294-.268 38.771 38.771 0 0 1 7.494-.245 18.012 18.012 0 0 1 7.36 1.907 6.844 6.844 0 0 1 3.214 3.2 3.329 3.329 0 0 1-2.869 4.923 58.78 58.78 0 0 0-11.073 2.411 33.943 33.943 0 0 0-7.024 2.819 18.109 18.109 0 0 0-6.826 6.033 16.043 16.043 0 0 0-2.371 6.31c-.141.935-.225 1.878-.354 2.918z"/><path data-name="Path 6" d="M39.674 17.242v3.928a.748.748 0 0 1-.441.7c-.245.126-.5.235-.755.34a3.324 3.324 0 0 0-2.087 2.45 8.441 8.441 0 0 0-.146 3.1 4.431 4.431 0 0 0 3.625 3.848 15.05 15.05 0 0 0 5.028.276 51.829 51.829 0 0 0 11.3-2.369c2.441-.745 4.91-1.4 7.377-2.048a4.213 4.213 0 0 1 2.57.118 1.675 1.675 0 0 1 1.125 2.227 2.1 2.1 0 0 1-.737.888 71.637 71.637 0 0 1-9.2 4.727c-4.07 1.864-8.156 3.695-12.187 5.641-1.891.913-3.686 2.033-5.486 3.122a9.436 9.436 0 0 0-1.563 1.38 3.766 3.766 0 0 0-.448.7 7 7 0 0 0 2.357.055 36.51 36.51 0 0 1-6.979 3.514 4.533 4.533 0 0 1 .457-2.064 17.453 17.453 0 0 1 3.094-4.511 48.693 48.693 0 0 1 7.349-6.7c.095-.07.184-.149.272-.228.015-.013.011-.047.016-.068-1.069-.263-2.149-.485-3.2-.8a16.342 16.342 0 0 1-6.885-3.639 6.052 6.052 0 0 1-2.111-5.067 8.366 8.366 0 0 1 1.753-4.212 24.565 24.565 0 0 1 5.563-5.229.724.724 0 0 1 .138-.076 1.008 1.008 0 0 1 .201-.003z"/></g></svg>